<svg xmlns="http://www.w3.org/2000/svg" viewBox="0 0 694.488 264.549"><defs><style>.a{fill:#839baa;}.b{fill:#e2001a;}.c{fill:#f8b334;}.d{fill:#1a171b;}</style></defs><title>GBN_CMYK_schwarz</title><path class="a" d="M152.561,198.827c0,.407-.042.8-.061,1.206l28.634,5.338v-7.118h17.424l11.063-28.308h-9.406V129.39h40.539v40.555H215.7l-11.062,28.308h5.538v16.883l49.415,25.016v-4.914h11.781l9.477-26.631a20.161,20.161,0,1,1,5.333,1.9l-8.8,24.728h7.653v7.038l65.549-17.266V194.931h27.154V120.563c0-12.918-10.471-23.389-25.528-23.389H149.322c-10.784,0-21.255,10.471-21.255,25.319v50.9A25.46,25.46,0,0,1,152.561,198.827Z" transform="translate(-107.254 -97.174)"/><path class="a" d="M140.153,261.43l40.981-38.66V211.131l-29.519-5.5a25.468,25.468,0,0,1-23.548,18.643v33.023h0A19.713,19.713,0,0,1,140.153,261.43Z" transform="translate(-107.254 -97.174)"/><path class="a" d="M173.512,346.624a20.65,20.65,0,0,1,24.625-20.29l10.323-27.471H198.023V267.25h11.642l-13.028-39.959H184.595l-40.5,38.2a19.792,19.792,0,0,1-16.031,31.44h0v28.45c0,10.988,10.471,21.464,21.255,21.464h24.2C173.522,346.771,173.512,346.7,173.512,346.624Z" transform="translate(-107.254 -97.174)"/><path class="a" d="M350.585,248.9v-18.03l-65.549,17.265v12.551H278l11.573,32.748c.432-.051.869-.083,1.313-.092a13.185,13.185,0,1,1-6.654,1.975L272,260.683h-12.4V246.5l-49.415-25.015v5.808h-7.581L215.62,267.25H229.64v31.614H214.509l-11.014,29.313a20.653,20.653,0,0,1,11.373,18.448c0,.074-.01.146-.012.221H352.211c15.057,0,25.528-10.475,25.528-23.394V248.9Z" transform="translate(-107.254 -97.174)"/><circle class="b" cx="20.813" cy="179.938" r="14.156"/><circle class="c" cx="86.937" cy="249.45" r="15.1"/><path class="d" d="M146.892,198.827a19.819,19.819,0,1,1-19.809-19.821A19.822,19.822,0,0,1,146.892,198.827Z" transform="translate(-107.254 -97.174)"/><path class="d" d="M439.369,177.188a72.2,72.2,0,0,0,13.366-1.284V152.773h-5.615v19.1c-1.832.121-4.393.183-7.02.183-8.36,0-13.06-2.868-13.06-14.4v-8c0-12.389,5.494-14.4,13.183-14.4,2.562,0,9.825.425,12.512.671v-4.519a83.7,83.7,0,0,0-13.306-1.159c-8.971,0-18.064,3.481-18.064,19.409v8C421.366,172.732,429.3,177.188,439.369,177.188Z" transform="translate(-107.254 -97.174)"/><path class="d" d="M487.7,171.452a78.2,78.2,0,0,1-11.718.975c-9.277,0-10.132-4.394-10.132-10.192v-.671h23.131v-2.443c0-11.288-4.517-17.212-14.4-17.212-9.521,0-14.221,5.982-14.221,16.541v2.564c0,10.863,3.479,16.174,15.38,16.174a48.309,48.309,0,0,0,11.961-1.342Zm-21.787-15.015c0-4.089,1.038-9.767,8.727-9.767,7.812,0,8.664,5.677,8.664,9.767v.609H465.917Z" transform="translate(-107.254 -97.174)"/><path class="d" d="M502.774,149.663c2.564-1.647,7.507-2.868,11.9-2.868V141.91c-4.7,0-8.787,1.038-11.959,3.543v-2.689h-5.373v33.569h5.431Z" transform="translate(-107.254 -97.174)"/><path class="d" d="M526.026,149.543c2.441-1.4,5.8-2.931,8.727-2.931,4.577,0,4.577,2.747,4.577,7.445v22.276h5.492V154.057a30.38,30.38,0,0,0-.244-4.639,18.7,18.7,0,0,1,8.485-2.805c5,0,5,2.747,5,7.445v22.276h5.494V154.057c0-5.19,0-12.147-9.767-12.147-3.051,0-6.467,1.038-10.373,3.6-1.282-2.2-3.479-3.6-7.385-3.6a17.1,17.1,0,0,0-10.009,3.481v-2.626h-5.431v33.569h5.431Z" transform="translate(-107.254 -97.174)"/><path class="d" d="M592.18,174.074v2.259h5.248V153.628c0-7.628-1.772-11.718-12.939-11.718a39.369,39.369,0,0,0-10.8,1.467v3.906a83.44,83.44,0,0,1,10.375-.734c6.713,0,7.872,1.284,7.872,7.078v2.443h-5c-9.4,0-15.44,1.526-15.44,10.375v1.221c0,6.711,3.722,9.521,10.009,9.521A18.791,18.791,0,0,0,592.18,174.074Zm-15.2-5.982v-1.647c0-5.369,2.868-6.224,9.948-6.224h5v10.008a19.569,19.569,0,0,1-9.337,2.684C579.3,172.915,576.981,171.877,576.981,168.092Z" transform="translate(-107.254 -97.174)"/><path class="d" d="M628.306,154.912v21.422H633.8V154.912c0-8.178-1.586-13-10.5-13-3.723,0-7.262,1.467-11.167,3.481v-2.626H606.7v33.569h5.432V149.6c4.454-1.951,7.932-2.989,10.559-2.989C627.329,146.612,628.306,148.809,628.306,154.912Z" transform="translate(-107.254 -97.174)"/><path class="d" d="M447.242,221.195a10.256,10.256,0,0,0,6.165-9.767c0-10.5-7.2-12.205-18.25-12.205H423.2v45.345h11.655c10.68,0,18.8-1.83,18.8-12.756C453.651,226.81,451.7,222.9,447.242,221.195Zm-18.429-16.966h6.345c8,0,12.572.367,12.572,7.2,0,4.273-1.951,7.2-9.825,7.2h-9.092Zm6.04,35.395h-6.04v-16.17H437.9c7.935,0,10.071,3.293,10.071,8.358C447.975,238.586,443.215,239.624,434.853,239.624Z" transform="translate(-107.254 -97.174)"/><rect class="d" x="355.124" y="100.156" width="5.552" height="7.449"/><rect class="d" x="355.124" y="113.829" width="5.49" height="33.565"/><path class="d" d="M490.877,245.422c9.458,0,14.339-5.431,14.339-15.194v-4.885c0-9.763-4.881-15.194-14.339-15.194-9.4,0-14.281,5.432-14.281,15.194v4.885C476.6,239.99,481.477,245.422,490.877,245.422Zm-8.789-20.08c0-7.262,2.745-10.371,8.789-10.371,6.161,0,8.848,3.11,8.848,10.371v4.885c0,7.262-2.687,10.376-8.848,10.376-6.1,0-8.789-3.114-8.789-10.376Z" transform="translate(-107.254 -97.174)"/><path class="d" d="M528.1,210.027a19.024,19.024,0,0,0-9.033,2.255V197.33h-5.494v47.237a99.091,99.091,0,0,0,12.33.855c9.946,0,14.89-4.635,14.89-15.378v-5.736C540.8,214.6,536.768,210.027,528.1,210.027Zm7.2,19.955c0,8-2.991,10.559-9.277,10.559-2.991,0-5.431-.184-6.957-.3V216.618c2.564-1.467,6.653-1.772,8.362-1.772,5.736,0,7.872,2.626,7.872,9.4Z" transform="translate(-107.254 -97.174)"/><path class="d" d="M560.506,210.148a39.412,39.412,0,0,0-10.8,1.463v3.906a84.224,84.224,0,0,1,10.375-.729c6.713,0,7.874,1.28,7.874,7.078v2.443h-5.006c-9.4,0-15.44,1.526-15.44,10.371V235.9c0,6.715,3.722,9.521,10.009,9.521a18.815,18.815,0,0,0,10.68-3.11v2.255h5.248v-22.7C573.442,214.238,571.675,210.148,560.506,210.148Zm7.447,28.317a19.549,19.549,0,0,1-9.34,2.684c-3.3,0-5.613-1.038-5.613-4.819V234.68c0-5.369,2.868-6.224,9.946-6.224h5.006Z" transform="translate(-107.254 -97.174)"/><path class="d" d="M599.318,210.148c-3.723,0-7.264,1.463-11.169,3.477V211h-5.432v33.565h5.432V217.839c4.456-1.955,7.935-2.993,10.559-2.993,4.64,0,5.615,2.2,5.615,8.3v21.422h5.494V223.146C609.817,214.971,608.229,210.148,599.318,210.148Z" transform="translate(-107.254 -97.174)"/><polygon class="d" points="536.92 113.829 529.841 113.829 516.352 128.965 516.352 100.156 510.921 100.156 510.921 147.394 516.352 147.394 516.352 130.732 529.902 147.394 537.165 147.394 522.397 129.757 536.92 113.829"/><path class="d" d="M690.127,228.7c0,2.805.06,6.345.3,9.946h-.121c-1.1-2.443-2.564-5.553-3.662-7.749l-15.807-31.676h-8.056v45.345h5.248V213.808c0-3.172-.121-6.47-.3-9.458h.121c1.159,2.685,2.564,5.432,3.662,7.691l15.99,32.527H695.5V199.223h-5.369Z" transform="translate(-107.254 -97.174)"/><path class="d" d="M717.405,210.148c-9.4,0-14.281,5.432-14.281,15.194v4.885c0,9.763,4.881,15.194,14.281,15.194,9.458,0,14.342-5.431,14.342-15.194v-4.885C731.747,215.58,726.864,210.148,717.405,210.148Zm8.85,20.08c0,7.262-2.687,10.376-8.85,10.376-6.1,0-8.787-3.114-8.787-10.376v-4.885c0-7.262,2.745-10.371,8.787-10.371,6.163,0,8.85,3.11,8.85,10.371Z" transform="translate(-107.254 -97.174)"/><path class="d" d="M760.491,211a38.348,38.348,0,0,0-7.874-.855c-7.812,0-13.852,3.114-13.852,15.136v5.8c0,9.884,4.637,14.34,12.51,14.34a18.475,18.475,0,0,0,9.4-2.564v1.709h5.309V197.33h-5.492Zm0,27.646a18.453,18.453,0,0,1-8.179,2.076c-5.615,0-8.056-2.989-8.056-9.642v-5.8c0-8.971,3.3-10.5,8.727-10.5a48.464,48.464,0,0,1,7.507.792Z" transform="translate(-107.254 -97.174)"/><path class="d" d="M801.742,229.8V227.36c0-11.292-4.514-17.212-14.4-17.212-9.521,0-14.219,5.982-14.219,16.541v2.56c0,10.863,3.477,16.174,15.378,16.174a48.106,48.106,0,0,0,11.964-1.342v-4.394a77.643,77.643,0,0,1-11.718.975c-9.279,0-10.132-4.394-10.132-10.192V229.8Zm-23.068-5.127c0-4.089,1.038-9.763,8.729-9.763,7.812,0,8.664,5.673,8.664,9.763v.613H778.674Z" transform="translate(-107.254 -97.174)"/><path class="d" d="M437.162,278.495a13.723,13.723,0,0,0-6.515,1.63V269.337h-3.964v34.077a71.585,71.585,0,0,0,8.9.617c7.176,0,10.742-3.347,10.742-11.1V288.8C446.32,281.8,443.415,278.495,437.162,278.495Zm5.2,14.4c0,5.769-2.157,7.616-6.692,7.616-2.157,0-3.919-.133-5.019-.221V283.251a13.989,13.989,0,0,1,6.032-1.28c4.139,0,5.679,1.9,5.679,6.782Z" transform="translate(-107.254 -97.174)"/><path class="d" d="M462.836,278.495a13.723,13.723,0,0,0-6.515,1.63V269.337h-3.964v34.077a71.585,71.585,0,0,0,8.9.617c7.176,0,10.742-3.347,10.742-11.1V288.8C471.994,281.8,469.089,278.495,462.836,278.495Zm5.2,14.4c0,5.769-2.157,7.616-6.692,7.616-2.157,0-3.919-.133-5.019-.221V283.251a13.989,13.989,0,0,1,6.032-1.28c4.139,0,5.679,1.9,5.679,6.782Z" transform="translate(-107.254 -97.174)"/><path class="d" d="M501.1,278.582a13.689,13.689,0,0,0-7.484,2.6c-.925-1.584-2.509-2.6-5.327-2.6a12.355,12.355,0,0,0-7.222,2.509V279.2h-3.918v24.215h3.918V284.085a13.913,13.913,0,0,1,6.3-2.113c3.3,0,3.3,1.984,3.3,5.373v16.07h3.962v-16.07a21.764,21.764,0,0,0-.177-3.347,13.494,13.494,0,0,1,6.119-2.026c3.612,0,3.612,1.984,3.612,5.373v16.07h3.962v-16.07C508.147,283.6,508.147,278.582,501.1,278.582Z" transform="translate(-107.254 -97.174)"/><path class="d" d="M518.944,279.2h-3.877v24.215h3.92V284.172a17.9,17.9,0,0,1,8.585-2.067v-3.522a13.57,13.57,0,0,0-8.629,2.555Z" transform="translate(-107.254 -97.174)"/><rect class="d" x="424.858" y="172.163" width="4.006" height="5.373"/><rect class="d" x="424.858" y="182.025" width="3.96" height="24.215"/><rect class="d" x="435.382" y="200.167" width="3.962" height="6.073"/><path class="d" d="M568.482,279.2a27.683,27.683,0,0,0-5.679-.617c-5.636,0-9.994,2.247-9.994,10.921v4.181c0,7.132,3.347,10.346,9.025,10.346a13.343,13.343,0,0,0,6.782-1.847v1.23h3.831V269.337h-3.964Zm0,19.946a13.316,13.316,0,0,1-5.9,1.5c-4.052,0-5.813-2.159-5.813-6.957V289.5c0-6.474,2.378-7.574,6.3-7.574a35.145,35.145,0,0,1,5.415.571Z" transform="translate(-107.254 -97.174)"/><path class="d" d="M588.741,278.582c-6.868,0-10.259,4.314-10.259,11.93v1.851c0,7.837,2.509,11.668,11.1,11.668a34.909,34.909,0,0,0,8.629-.967v-3.172a56.123,56.123,0,0,1-8.454.7c-6.69,0-7.307-3.168-7.307-7.353v-.483h16.687V291C599.133,282.855,595.875,278.582,588.741,278.582Zm6.3,10.921H582.49v-.442c0-2.951.748-7.045,6.3-7.045,5.636,0,6.253,4.093,6.253,7.045Z" transform="translate(-107.254 -97.174)"/></svg>